# xmcd
# 
# Track frame offsets:
#     150
#     19572
#     37639
#     53020
#     65229
#     79235
#     97281
#     112711
#     127410
#     145749
#     163962
#     181670
#     196636
# 
# Disc length: 2866
# 
# Revision: 0
# Processed by: cddbd v1.5.2PL0 Copyright (c) Steve Scherf et al.
# Submitted via: BonkEnc v1.0.15
# 
DISCID=aa0b300d
DTITLE=Charlie West - Ici et ailleurs
DYEAR=0
DGENRE=Country
TTITLE0=I'm a man of constant sorrow
TTITLE1=Cosmic cowboy, cosmic breakdown
TTITLE2=Un secret lourd à porter
TTITLE3=Honky Tonk Girls
TTITLE4=Je suis un ange
TTITLE5=On croit toujours
TTITLE6=Have you ever seen the rain
TTITLE7=Weapon of prayer
TTITLE8=I'm from the country
TTITLE9=Take me home Country road
TTITLE10=Seminole wind
TTITLE11=Un soir au Honky Tonk Bar
TTITLE12=Honk Tonk World
EXTD=
EXTT0=
EXTT1=
EXTT2=
EXTT3=
EXTT4=
EXTT5=
EXTT6=
EXTT7=
EXTT8=
EXTT9=
EXTT10=
EXTT11=
EXTT12=
PLAYORDER=
